<?xml version="1.0" encoding="utf-8"?>
<!-- Generator: Adobe Illustrator 23.0.5, SVG Export Plug-In . SVG Version: 6.00 Build 0)  -->
<svg version="1.1" id="Capa_1" xmlns="http://www.w3.org/2000/svg" xmlns:xlink="http://www.w3.org/1999/xlink" x="0px" y="0px"
	 viewBox="0 0 841.89 595.28" style="enable-background:new 0 0 841.89 595.28;" xml:space="preserve">
<style type="text/css">
	.st0{fill:#BB1818;}
</style>
<path class="st0" d="M555.35,272.69c0,99.65-80.78,180.43-180.43,180.43c-6.26,0-12.44-0.32-18.54-0.94h-52.91v-0.01
	c-0.3,0.01-0.6,0.01-0.9,0.01c-19.87,0-35.99-15.78-36.12-35.29v-0.24c0-19.62,16.17-35.53,36.12-35.53c0.3,0,0.6,0,0.9,0.01v-0.07
	h67.75c1.11,0.04,2.22,0.06,3.34,0.06c0.44,0,0.89,0,1.33-0.02c59.1-0.71,106.78-49.11,106.78-108.7
	c0-60.04-48.4-108.71-108.11-108.71h-35.88V308.9c0,19.66-16.17,35.59-36.11,35.59c-3.53,0-6.95-0.5-10.17-1.43
	c-15-4.33-25.95-17.98-25.95-34.16V163.69h-35.31c-0.01-0.01,0-0.01,0-0.01h-0.4c-0.16,0.01-0.33,0.01-0.5,0.01
	c-20,0-36.21-15.99-36.21-35.72c0-19.72,16.21-35.71,36.21-35.71c0.17,0,0.34,0,0.5,0.01v-0.01h144.18
	C474.57,92.26,555.35,173.04,555.35,272.69z"/>
</svg>
